<svg xmlns="http://www.w3.org/2000/svg" width="104.321" height="109.535" viewBox="0 0 104.321 109.535">
  <g id="building" transform="translate(-12.186)">
    <g id="Group_149" data-name="Group 149" transform="translate(62.304 12.33)">
      <g id="Group_148" data-name="Group 148">
        <path id="Path_126" data-name="Path 126" d="M254.587,57.633h-6.152a1.984,1.984,0,0,0-1.981,1.982V67a1.983,1.983,0,0,0,1.981,1.981h6.152A1.984,1.984,0,0,0,256.569,67V59.615A1.984,1.984,0,0,0,254.587,57.633Zm-1.148,8.215h-3.856V60.763h3.856Z" transform="translate(-246.454 -57.633)"/>
      </g>
    </g>
    <g id="Group_151" data-name="Group 151" transform="translate(74.536 12.33)">
      <g id="Group_150" data-name="Group 150" transform="translate(0)">
        <path id="Path_127" data-name="Path 127" d="M311.76,57.633h-6.152a1.984,1.984,0,0,0-1.981,1.982V67a1.984,1.984,0,0,0,1.981,1.981h6.152A1.984,1.984,0,0,0,313.742,67V59.615A1.984,1.984,0,0,0,311.76,57.633Zm-1.148,8.215h-3.855V60.763h3.855Z" transform="translate(-303.627 -57.633)"/>
      </g>
    </g>
    <g id="Group_153" data-name="Group 153" transform="translate(86.767 12.33)">
      <g id="Group_152" data-name="Group 152">
        <path id="Path_128" data-name="Path 128" d="M368.932,57.633H362.78a1.984,1.984,0,0,0-1.981,1.982V67a1.984,1.984,0,0,0,1.981,1.981h6.152A1.984,1.984,0,0,0,370.914,67V59.615A1.984,1.984,0,0,0,368.932,57.633Zm-1.148,8.215h-3.856V60.763h3.856Z" transform="translate(-360.799 -57.633)"/>
      </g>
    </g>
    <g id="Group_155" data-name="Group 155" transform="translate(62.304 30.661)">
      <g id="Group_154" data-name="Group 154">
        <path id="Path_129" data-name="Path 129" d="M254.587,143.318h-6.152a1.984,1.984,0,0,0-1.981,1.982v7.382a1.984,1.984,0,0,0,1.981,1.982h6.152a1.984,1.984,0,0,0,1.982-1.982V145.3A1.984,1.984,0,0,0,254.587,143.318Zm-1.148,8.216h-3.856v-5.086h3.856Z" transform="translate(-246.454 -143.318)"/>
      </g>
    </g>
    <g id="Group_157" data-name="Group 157" transform="translate(74.536 30.661)">
      <g id="Group_156" data-name="Group 156" transform="translate(0)">
        <path id="Path_130" data-name="Path 130" d="M311.76,143.318h-6.152a1.984,1.984,0,0,0-1.981,1.982v7.382a1.984,1.984,0,0,0,1.981,1.982h6.152a1.984,1.984,0,0,0,1.981-1.982V145.3A1.984,1.984,0,0,0,311.76,143.318Zm-1.148,8.216h-3.855v-5.086h3.855Z" transform="translate(-303.627 -143.318)"/>
      </g>
    </g>
    <g id="Group_159" data-name="Group 159" transform="translate(86.767 30.661)">
      <g id="Group_158" data-name="Group 158">
        <path id="Path_131" data-name="Path 131" d="M368.932,143.318H362.78A1.984,1.984,0,0,0,360.8,145.3v7.382a1.984,1.984,0,0,0,1.981,1.982h6.152a1.984,1.984,0,0,0,1.982-1.982V145.3A1.984,1.984,0,0,0,368.932,143.318Zm-1.148,8.216h-3.856v-5.086h3.856Z" transform="translate(-360.799 -143.318)"/>
      </g>
    </g>
    <g id="Group_161" data-name="Group 161" transform="translate(62.304 48.992)">
      <g id="Group_160" data-name="Group 160">
        <path id="Path_132" data-name="Path 132" d="M254.587,229h-6.152a1.984,1.984,0,0,0-1.981,1.982v7.382a1.984,1.984,0,0,0,1.981,1.982h6.152a1.984,1.984,0,0,0,1.982-1.982v-7.382A1.984,1.984,0,0,0,254.587,229Zm-1.148,8.216h-3.856v-5.086h3.856Z" transform="translate(-246.454 -229.005)"/>
      </g>
    </g>
    <g id="Group_163" data-name="Group 163" transform="translate(74.536 48.992)">
      <g id="Group_162" data-name="Group 162" transform="translate(0)">
        <path id="Path_133" data-name="Path 133" d="M311.76,229h-6.152a1.984,1.984,0,0,0-1.981,1.982v7.382a1.984,1.984,0,0,0,1.981,1.982h6.152a1.984,1.984,0,0,0,1.981-1.982v-7.382A1.984,1.984,0,0,0,311.76,229Zm-1.148,8.216h-3.855v-5.086h3.855Z" transform="translate(-303.627 -229.005)"/>
      </g>
    </g>
    <g id="Group_165" data-name="Group 165" transform="translate(86.767 48.992)">
      <g id="Group_164" data-name="Group 164">
        <path id="Path_134" data-name="Path 134" d="M368.932,229H362.78a1.984,1.984,0,0,0-1.981,1.982v7.382a1.984,1.984,0,0,0,1.981,1.982h6.152a1.984,1.984,0,0,0,1.982-1.982v-7.382A1.984,1.984,0,0,0,368.932,229Zm-1.148,8.216h-3.856v-5.086h3.856Z" transform="translate(-360.799 -229.005)"/>
      </g>
    </g>
    <g id="Group_167" data-name="Group 167" transform="translate(86.767 67.324)">
      <g id="Group_166" data-name="Group 166">
        <path id="Path_135" data-name="Path 135" d="M368.932,314.692H362.78a1.984,1.984,0,0,0-1.981,1.981v7.382a1.984,1.984,0,0,0,1.981,1.982h6.152a1.984,1.984,0,0,0,1.982-1.982v-7.382A1.984,1.984,0,0,0,368.932,314.692Zm-1.148,8.215h-3.856v-5.085h3.856Z" transform="translate(-360.799 -314.692)"/>
      </g>
    </g>
    <g id="Group_169" data-name="Group 169" transform="translate(12.186)">
      <g id="Group_168" data-name="Group 168" transform="translate(0)">
        <path id="Path_136" data-name="Path 136" d="M115.385,74.3a6.517,6.517,0,0,0-9-1.741l-4.3,2.879V8.122h.312a2.057,2.057,0,0,0,2.055-2.055V2.055A2.057,2.057,0,0,0,102.395,0H92.4a1.565,1.565,0,1,0,0,3.129h8.917V4.992H57.384V3.129H82.6A1.565,1.565,0,1,0,82.6,0H56.308a2.057,2.057,0,0,0-2.055,2.055V6.067a2.057,2.057,0,0,0,2.055,2.055H57.1v20.1H53.89V24.359a2.442,2.442,0,0,0-2.439-2.439H39.636A2.442,2.442,0,0,0,37.2,24.359v3.862H34.949a2.537,2.537,0,0,0-2.534,2.534V66.642q-.994-.063-1.992-.065H27.956v-.813a5.512,5.512,0,0,0-5.506-5.506H17.692a5.512,5.512,0,0,0-5.506,5.506V88.109a1.565,1.565,0,1,0,3.129,0V65.764a2.379,2.379,0,0,1,2.376-2.376H22.45a2.379,2.379,0,0,1,2.376,2.376v35.209a2.379,2.379,0,0,1-2.376,2.376H17.692a2.379,2.379,0,0,1-2.376-2.376V97.9a1.565,1.565,0,0,0-3.129,0v3.07a5.512,5.512,0,0,0,5.506,5.506H22.45a5.512,5.512,0,0,0,5.506-5.506v-.089l21.668,8.205q.064.024.129.043a10.447,10.447,0,0,0,2.847.4,9.806,9.806,0,0,0,1.529-.12h0l31.984-4.61.024,0a15.743,15.743,0,0,0,7.459-3.342l.057-.049,20.672-18.592A6.518,6.518,0,0,0,115.385,74.3ZM60.233,8.122h38.72V77.531l-13.02,8.713L81.568,86l-.111-1.118a9.562,9.562,0,0,0-.539-2.356q-.137-.373-.3-.73a9.474,9.474,0,0,0-2.343-3.127h4.4a1.984,1.984,0,0,0,1.981-1.982V69.305a1.984,1.984,0,0,0-1.981-1.981H76.517a1.984,1.984,0,0,0-1.981,1.981v7.347a9.671,9.671,0,0,0-1.216-.253l-.04-.005-.86-.1V69.305a1.984,1.984,0,0,0-1.982-1.982H64.286A1.984,1.984,0,0,0,62.3,69.305V75.13l-2.072-.238V8.122ZM77.665,75.539V70.454H81.52v5.085Zm-8.376-5.086v5.086H65.854l-.42-.048V70.453Zm-28.962-45.4H50.76v3.171H40.327Zm-4.783,6.3H57.1v4.894H39.431A1.837,1.837,0,0,0,37.6,38.079V42.8a1.837,1.837,0,0,0,1.835,1.835H57.1v4.4H39.431A1.837,1.837,0,0,0,37.6,50.875V55.6a1.837,1.837,0,0,0,1.835,1.835H57.1v4.4H39.431A1.837,1.837,0,0,0,37.6,63.672v3.736q-.4-.093-.8-.175l-.379-.076c-.148-.029-.3-.056-.445-.082s-.285-.053-.427-.077V31.351ZM57.1,39.374v2.135H40.726V39.374Zm0,12.8V54.3H40.726V52.17ZM40.726,67.1V64.967H57.1V67.1ZM57.1,70.231v4.3l-.482-.056a28.5,28.5,0,0,1-2.988-.59,28.109,28.109,0,0,1-5.5-2.024q-.352-.173-.7-.357-.567-.3-1.124-.623c-.273-.16-.549-.313-.825-.464l-.18-.1-.165-.089Zm55.138,10.252L91.591,99.056a12.609,12.609,0,0,1-5.935,2.652l-31.984,4.61-.043.007a7.018,7.018,0,0,1-2.963-.189l-22.71-8.6V69.707h2.466a28.269,28.269,0,0,1,3.386.207q.341.041.681.09l.1.015q.858.127,1.7.306c.175.037.35.074.524.114l.261.062c.227.055.454.112.679.172l.122.033a28.341,28.341,0,0,1,5.137,1.953l.147.074q.314.158.625.325l.189.1c.249.136.5.274.743.418l.011.006q1,.583,2.028,1.09a31.286,31.286,0,0,0,9.449,2.9l.04.005,2.247.259,1.83.211,4.219.486,1.047.121h0L72.9,79.5a6.373,6.373,0,0,1,5.443,5.691l.054.545L49.066,82.878a1.565,1.565,0,1,0-.3,3.115l31.094,3.031a1.529,1.529,0,0,0,.2.025l6.225.349.088,0c.031,0,.061,0,.092-.007s.071,0,.106-.008.089-.016.133-.025.07-.013.1-.023.093-.032.138-.05c.029-.011.058-.02.086-.033a1.577,1.577,0,0,0,.211-.118l14.149-9.469h0l6.74-4.511a3.373,3.373,0,0,1,4.113,5.327Z" transform="translate(-12.186 0)"/>
      </g>
    </g>
  </g>
</svg>
