<svg xmlns="http://www.w3.org/2000/svg" width="87.413" height="110.411" viewBox="0 0 87.413 110.411">
  <g id="Electricity_Transmissionbuildings" data-name="Electricity Transmissionbuildings" transform="translate(-53.327 0)">
    <path id="Path_83" data-name="Path 83" d="M140.957,261.038a2.3,2.3,0,0,1-1.463-4.076l34.151-28.125H147.857a2.3,2.3,0,0,1-1.872-3.639l20.4-28.562h-9.329a2.3,2.3,0,1,1,0-4.6h13.8a2.3,2.3,0,0,1,1.872,3.639l-20.4,28.562h27.73a2.3,2.3,0,0,1,1.463,4.076l-39.1,32.2A2.3,2.3,0,0,1,140.957,261.038Z" transform="translate(-66.929 -150.627)" fill="#1494aa"/>
    <g id="Group_58" data-name="Group 58" transform="translate(53.327 0)">
      <path id="Path_84" data-name="Path 84" d="M186.956,110.411h-46a2.3,2.3,0,0,1-2.249-2.788l23-105.8a2.3,2.3,0,0,1,4.5,0l23,105.8a2.3,2.3,0,0,1-2.249,2.788Zm-43.145-4.6H184.1L163.955,13.137Z" transform="translate(-120.254 0)" fill="#1494aa"/>
      <path id="Path_85" data-name="Path 85" d="M138.429,120.5a2.3,2.3,0,0,1-2.3-2.3v-6.9h-78.2v6.9a2.3,2.3,0,1,1-4.6,0V109a2.3,2.3,0,0,1,2.3-2.3h82.8a2.3,2.3,0,0,1,2.3,2.3v9.2A2.3,2.3,0,0,1,138.429,120.5Z" transform="translate(-53.327 -83.695)" fill="#1494aa"/>
      <path id="Path_86" data-name="Path 86" d="M87.838,129.691a2.322,2.322,0,0,1-1.141-.3l-32.2-18.4a2.306,2.306,0,1,1,2.3-4l32.2,18.4a2.3,2.3,0,0,1-1.159,4.3Z" transform="translate(-53.337 -83.681)" fill="#1494aa"/>
      <path id="Path_87" data-name="Path 87" d="M290.252,129.675a2.3,2.3,0,0,1-1.145-4.3l32.2-18.4a2.306,2.306,0,1,1,2.3,4l-32.2,18.4A2.326,2.326,0,0,1,290.252,129.675Z" transform="translate(-237.351 -83.666)" fill="#1494aa"/>
    </g>
  </g>
</svg>
