<svg xmlns="http://www.w3.org/2000/svg" width="140.011" height="86.341" viewBox="0 0 140.011 86.341">
  <g id="Page-1" transform="translate(-0.001)">
    <g id="_050---Track" data-name="050---Track" transform="translate(0.002 0)">
      <path id="Shape" d="M4.665,72.34H17.5l-1.792,4.317a7,7,0,0,0,6.473,9.684h7.729a7.022,7.022,0,0,0,6.749-5.134l2.453-8.868H100.9l2.453,8.868a7.022,7.022,0,0,0,6.749,5.134h7.729a7,7,0,0,0,6.469-9.682l-1.787-4.319h12.835a4.667,4.667,0,0,0,4.051-6.987l-6.683-11.668a4.667,4.667,0,0,0-4.056-2.348H113.787l-2.908-7h8.4a4.667,4.667,0,0,0,4.051-6.984l-4-7A4.667,4.667,0,0,0,115.275,28H104.1l-1.937-4.667h5.106a4.667,4.667,0,0,0,4.051-6.987l-2.672-4.681A4.69,4.69,0,0,0,104.6,9.334H96.35L93.671,2.877A4.667,4.667,0,0,0,89.35,0H87.016a4.667,4.667,0,0,0-4.49,5.918l.945,3.416H56.538l.945-3.414A4.667,4.667,0,0,0,52.993,0H50.659a4.681,4.681,0,0,0-4.326,2.887L43.659,9.334H35.412a4.693,4.693,0,0,0-4.053,2.348l-2.67,4.667a4.667,4.667,0,0,0,4.051,6.987h5.106L35.909,28H24.734a4.681,4.681,0,0,0-4.06,2.35l-4,7a4.667,4.667,0,0,0,4.051,6.984h8.4l-2.905,7H11.353A4.667,4.667,0,0,0,7.3,53.686L.619,65.353A4.667,4.667,0,0,0,4.665,72.34ZM40.4,67.673l3.239-11.668H96.374L99.6,67.673Zm12.27-44.337H87.345L88.636,28H51.373ZM50.083,32.67H89.926l1.937,7H48.146ZM46.856,44.337h46.3l1.937,7H44.919Zm81.8,11.668,6.688,11.668H120.566l-4.842-11.668ZM115.275,32.67l4.007,7h-10.34l-2.905-7ZM104.59,14l2.672,4.667h-7.038L98.287,14ZM89.373,4.667l30.612,73.78a2.334,2.334,0,0,1-2.156,3.227H110.1a2.334,2.334,0,0,1-2.25-1.71L87.016,4.667ZM84.771,14l1.29,4.667h-32.1L55.247,14ZM50.659,4.667l2.334-.012v.012l-20.834,75.3a2.334,2.334,0,0,1-2.25,1.71H22.181a2.334,2.334,0,0,1-2.156-3.23Zm-17.919,14L35.412,14h6.3l-1.937,4.667Zm-12.02,21,4.014-7h9.246l-2.908,7ZM11.353,56.005H24.286L19.441,67.673H4.665Z" transform="translate(-0.002 0)"/>
    </g>
  </g>
</svg>
