<svg id="paths" xmlns="http://www.w3.org/2000/svg" width="109.115" height="107.835" viewBox="0 0 109.115 107.835">
  <g id="Group_21" data-name="Group 21" transform="translate(72.465 0)">
    <g id="Group_20" data-name="Group 20">
      <path id="Path_8" data-name="Path 8" d="M349.427,30.681l-6.24-26.444a1.6,1.6,0,1,0-3.117.736l6.241,26.444a1.6,1.6,0,1,0,3.117-.736Z" transform="translate(-340.026 -3.003)" fill="#1494aa"/>
    </g>
  </g>
  <g id="Group_23" data-name="Group 23" transform="translate(79.921 31.596)">
    <g id="Group_22" data-name="Group 22">
      <path id="Path_9" data-name="Path 9" d="M395.411,225.529l-17.236-73.036a1.6,1.6,0,0,0-3.117.736l17.236,73.035a1.6,1.6,0,0,0,3.117-.735Z" transform="translate(-375.015 -151.26)" fill="#1494aa"/>
    </g>
  </g>
  <g id="Group_25" data-name="Group 25" transform="translate(8.754 94.202)">
    <g id="Group_24" data-name="Group 24">
      <path id="Path_10" data-name="Path 10" d="M45.508,445.07a1.6,1.6,0,0,0-1.927,1.191L41.121,456.69a1.6,1.6,0,1,0,3.117.736L46.7,447A1.6,1.6,0,0,0,45.508,445.07Z" transform="translate(-41.078 -445.027)" fill="#1494aa"/>
    </g>
  </g>
  <g id="Group_27" data-name="Group 27" transform="translate(12.808 0)">
    <g id="Group_26" data-name="Group 26" transform="translate(0 0)">
      <path id="Path_11" data-name="Path 11" d="M82.707,3.046A1.6,1.6,0,0,0,80.78,4.237L60.142,91.691a1.6,1.6,0,1,0,3.117.736L83.9,4.972A1.6,1.6,0,0,0,82.707,3.046Z" transform="translate(-60.099 -3.002)" fill="#1494aa"/>
    </g>
  </g>
  <g id="Group_29" data-name="Group 29" transform="translate(76.328 0)">
    <g id="Group_28" data-name="Group 28">
      <path id="Path_12" data-name="Path 12" d="M390.882,108.8,361.3,4.168a1.6,1.6,0,1,0-3.082.871L387.8,109.671a1.6,1.6,0,0,0,3.082-.871Z" transform="translate(-358.156 -3.002)" fill="#1494aa"/>
    </g>
  </g>
  <g id="Group_31" data-name="Group 31" transform="translate(0 0)">
    <g id="Group_30" data-name="Group 30" transform="translate(0 0)">
      <path id="Path_13" data-name="Path 13" d="M31.62,3.064a1.6,1.6,0,0,0-1.977,1.105L.06,108.8a1.6,1.6,0,1,0,3.082.872L32.726,5.041A1.6,1.6,0,0,0,31.62,3.064Z" transform="translate(0 -3.003)" fill="#1494aa"/>
    </g>
  </g>
  <g id="Group_33" data-name="Group 33" transform="translate(50.172 0)">
    <g id="Group_32" data-name="Group 32">
      <path id="Path_14" data-name="Path 14" d="M243.953,4.555a1.6,1.6,0,1,0-3.2.1l.188,6.128h-2.266l.188-6.128a1.6,1.6,0,0,0-3.2-.1l-.239,7.779a1.6,1.6,0,0,0,1.6,1.651h5.569a1.6,1.6,0,0,0,1.6-1.651Z" transform="translate(-235.421 -3.003)" fill="#1494aa"/>
    </g>
  </g>
  <g id="Group_35" data-name="Group 35" transform="translate(49.627 11.802)">
    <g id="Group_34" data-name="Group 34">
      <path id="Path_15" data-name="Path 15" d="M242.3,59.934a1.6,1.6,0,0,0-1.6-1.552h-5.817a1.6,1.6,0,0,0-1.6,1.552l-.421,13.658a1.6,1.6,0,0,0,1.6,1.651h6.658a1.6,1.6,0,0,0,1.6-1.651ZM236.118,72.04l.322-10.455h2.711l.322,10.455Z" transform="translate(-232.865 -58.382)" fill="#1494aa"/>
    </g>
  </g>
  <g id="Group_37" data-name="Group 37" transform="translate(48.989 30.593)">
    <g id="Group_36" data-name="Group 36">
      <path id="Path_16" data-name="Path 16" d="M240.526,148.107a1.6,1.6,0,0,0-1.6-1.552h-6.974a1.6,1.6,0,0,0-1.6,1.552l-.48,15.588a1.6,1.6,0,0,0,1.6,1.651h7.935a1.6,1.6,0,0,0,1.6-1.651Zm-7.4,14.036.382-12.385h3.868l.382,12.385Z" transform="translate(-229.869 -146.555)" fill="#1494aa"/>
    </g>
  </g>
  <g id="Group_39" data-name="Group 39" transform="translate(48.182 53.426)">
    <g id="Group_38" data-name="Group 38">
      <path id="Path_17" data-name="Path 17" d="M238.249,255.246a1.6,1.6,0,0,0-1.6-1.552h-8.379a1.6,1.6,0,0,0-1.6,1.552l-.585,19.019a1.6,1.6,0,0,0,1.6,1.651h9.549a1.6,1.6,0,0,0,1.6-1.651Zm-8.914,17.467.487-15.816h5.273l.486,15.816Z" transform="translate(-226.082 -253.694)" fill="#1494aa"/>
    </g>
  </g>
  <g id="Group_41" data-name="Group 41" transform="translate(47.191 81.611)">
    <g id="Group_40" data-name="Group 40">
      <path id="Path_18" data-name="Path 18" d="M235.457,387.5a1.6,1.6,0,0,0-1.6-1.552H223.743a1.6,1.6,0,0,0-1.6,1.552l-.709,23.021a1.6,1.6,0,0,0,3.2.1l.661-21.469H232.3l.661,21.469a1.6,1.6,0,0,0,1.6,1.552h.05a1.6,1.6,0,0,0,1.552-1.65Z" transform="translate(-221.432 -385.944)" fill="#1494aa"/>
    </g>
  </g>
</svg>
