<svg xmlns="http://www.w3.org/2000/svg" width="107.58" height="107.586" viewBox="0 0 107.58 107.586">
  <g id="Tiles_decoration" data-name="Tiles decoration" transform="translate(-0.008 -0.014)">
    <path id="Path_137" data-name="Path 137" d="M102.519,69.257H70.6V37.311a1.68,1.68,0,0,0-1.681-1.681H37V3.683A1.68,1.68,0,0,0,35.317,2H1.689A1.68,1.68,0,0,0,.008,3.683V104.565a1.68,1.68,0,0,0,1.681,1.681h100.83a1.68,1.68,0,0,0,1.681-1.681V70.938a1.681,1.681,0,0,0-1.681-1.681ZM3.371,38.992H33.608V69.257H3.371ZM37,72.619H67.21v30.265H37Zm30.238-3.363H37V38.992H67.236ZM3.371,5.365H33.635V35.629H3.371Zm0,67.255H33.608v30.265H3.371Zm97.467,30.265H70.6V72.619h30.238v30.265Z" transform="translate(0 1.354)"/>
    <path id="Path_138" data-name="Path 138" d="M28.228,5a1.68,1.68,0,0,0-1.681,1.681V28.541H4.689a1.681,1.681,0,0,0,0,3.363H28.228a1.68,1.68,0,0,0,1.681-1.681V6.683A1.68,1.68,0,0,0,28.228,5Z" transform="translate(2.044 3.398)"/>
    <path id="Path_139" data-name="Path 139" d="M28.228,25a1.68,1.68,0,0,0-1.681,1.681V48.541H4.689a1.681,1.681,0,1,0,0,3.363H28.228a1.68,1.68,0,0,0,1.681-1.681V26.683A1.68,1.68,0,0,0,28.228,25Z" transform="translate(2.044 17.026)"/>
    <path id="Path_140" data-name="Path 140" d="M28.228,45a1.68,1.68,0,0,0-1.681,1.681V68.541H4.689a1.681,1.681,0,0,0,0,3.363H28.228a1.68,1.68,0,0,0,1.681-1.681V46.683A1.68,1.68,0,0,0,28.228,45Z" transform="translate(2.044 30.653)"/>
    <path id="Path_141" data-name="Path 141" d="M24.689,51.9H48.228a1.68,1.68,0,0,0,1.681-1.681V26.683a1.681,1.681,0,0,0-3.363,0V48.541H24.689a1.681,1.681,0,1,0,0,3.363Z" transform="translate(15.671 17.026)"/>
    <path id="Path_142" data-name="Path 142" d="M48.228,45a1.68,1.68,0,0,0-1.681,1.681V68.541H24.689a1.681,1.681,0,0,0,0,3.363H48.228a1.68,1.68,0,0,0,1.681-1.681V46.683A1.68,1.68,0,0,0,48.228,45Z" transform="translate(15.671 30.653)"/>
    <path id="Path_143" data-name="Path 143" d="M44.689,71.9H68.228a1.68,1.68,0,0,0,1.681-1.681V46.683a1.681,1.681,0,0,0-3.363,0V68.541H44.689a1.681,1.681,0,1,0,0,3.363Z" transform="translate(29.299 30.653)"/>
    <path id="Path_144" data-name="Path 144" d="M24.669,6.345h26.9a1.681,1.681,0,1,0,0-3.363h-26.9a1.681,1.681,0,0,0,0,3.363Z" transform="translate(15.658 2.022)"/>
    <path id="Path_145" data-name="Path 145" d="M24.669,10.347h26.9a1.681,1.681,0,1,0,0-3.363h-26.9a1.681,1.681,0,0,0,0,3.363Z" transform="translate(15.658 4.749)"/>
    <path id="Path_146" data-name="Path 146" d="M24.669,14.349h26.9a1.681,1.681,0,1,0,0-3.363h-26.9a1.681,1.681,0,0,0,0,3.363Z" transform="translate(15.658 7.476)"/>
    <path id="Path_147" data-name="Path 147" d="M24.669,18.351h26.9a1.681,1.681,0,1,0,0-3.363h-26.9a1.681,1.681,0,0,0,0,3.363Z" transform="translate(15.658 10.202)"/>
    <path id="Path_148" data-name="Path 148" d="M24.669,22.351h26.9a1.681,1.681,0,1,0,0-3.363h-26.9a1.681,1.681,0,0,0,0,3.363Z" transform="translate(15.658 12.928)"/>
    <path id="Path_149" data-name="Path 149" d="M60.168.572C58.923,2.021,47.992,14.929,47.992,21.855a13.469,13.469,0,0,0,9.249,12.77v5.718H55.56a1.681,1.681,0,0,0,0,3.363h0V57.992s0,.005,0,.008a5.885,5.885,0,0,0,11.77,0s0-.005,0-.008V43.706a1.681,1.681,0,0,0,0-3.363H65.646V34.625a13.473,13.473,0,0,0,9.247-12.77c0-6.926-10.931-19.833-12.176-21.283a1.736,1.736,0,0,0-2.549,0Zm3.8,57.434a2.522,2.522,0,0,1-5.044,0s0,0,0-.005V43.706h5.041V58S63.967,58,63.967,58.006ZM62.284,40.343H60.6V35.263c.279.018.557.042.839.042s.562-.025.841-.042Zm-.841-8.4A10.1,10.1,0,0,1,51.355,21.855c0-4.262,6.419-13.046,10.088-17.56,3.67,4.514,10.088,13.295,10.088,17.56A10.1,10.1,0,0,1,61.443,31.943Z" transform="translate(32.695)"/>
  </g>
</svg>
