<svg id="tool" xmlns="http://www.w3.org/2000/svg" width="115.549" height="108.329" viewBox="0 0 115.549 108.329">
  <path id="Path_43" data-name="Path 43" d="M171.059,59.413a2.259,2.259,0,0,0,2.465-3.787l-.063-.041A2.26,2.26,0,1,0,171,59.373Zm0,0" transform="translate(-131.61 -42.757)"/>
  <path id="Path_44" data-name="Path 44" d="M76.569,58.2h-2.9a2.26,2.26,0,0,0-2.26,2.259v7.5a2.26,2.26,0,0,0,2.26,2.259h39.545a2.26,2.26,0,0,0,2.26-2.259v-7.5a2.26,2.26,0,0,0-2.26-2.259h-2.287V14.742a2.26,2.26,0,0,0-2.26-2.26H57.723V4.52h2.6a2.26,2.26,0,0,0,0-4.52H20.977a2.26,2.26,0,0,0,0,4.52h2.266v7.962H4.52V7.11A2.26,2.26,0,1,0,0,7.11V51.822a2.26,2.26,0,1,0,4.52,0V17H31.828a2.26,2.26,0,0,0,0-4.52H27.762V4.52H53.2v7.962H49.639a2.26,2.26,0,0,0,0,4.52H76.569v8.345a2.259,2.259,0,1,0,4.519,0V17h25.32V58.2H81.088V46.841H93.1a2.259,2.259,0,1,0,0-4.519H27.755v-7.5a2.259,2.259,0,0,0-4.519,0v7.5H13.02a2.259,2.259,0,1,0,0,4.519H25.044a2.254,2.254,0,0,0,.9,0H76.569Zm32.1,4.52h2.288V65.7H75.929v-2.98Zm0,0"/>
  <path id="Path_45" data-name="Path 45" d="M370.08,326.637a3.076,3.076,0,0,0-2.591,1.41c-3.653,5.638-9.782,15.841-9.782,20.831a12.373,12.373,0,0,0,24.746,0c0-4.989-6.129-15.193-9.782-20.831A3.079,3.079,0,0,0,370.08,326.637Zm0,30.094a7.863,7.863,0,0,1-7.853-7.854c0-2.472,3.042-8.83,7.853-16.491,4.812,7.661,7.854,14.019,7.854,16.491A7.863,7.863,0,0,1,370.08,356.731Zm0,0" transform="translate(-276.979 -252.921)"/>
  <path id="Path_46" data-name="Path 46" d="M487.3,345.359a2.261,2.261,0,0,0-2.969-1.183l-2.624,1.129a2.26,2.26,0,1,0,1.786,4.152l2.624-1.129A2.261,2.261,0,0,0,487.3,345.359Zm0,0" transform="translate(-371.936 -266.36)"/>
  <path id="Path_47" data-name="Path 47" d="M472.038,378.535h-2.857a2.26,2.26,0,1,0,0,4.52h2.857a2.26,2.26,0,1,0,0-4.52Zm0,0" transform="translate(-361.546 -293.107)"/>
  <path id="Path_48" data-name="Path 48" d="M451.978,328.782l-2,2.043a2.26,2.26,0,1,0,3.231,3.16l2-2.043a2.26,2.26,0,0,0-3.231-3.16Zm0,0" transform="translate(-347.929 -254.055)"/>
  <path id="Path_49" data-name="Path 49" d="M309.989,353.163a2.26,2.26,0,0,0,.894-4.336l-2.624-1.129a2.26,2.26,0,1,0-1.786,4.152l2.624,1.128A2.242,2.242,0,0,0,309.989,353.163Zm0,0" transform="translate(-236.249 -269.086)"/>
  <path id="Path_50" data-name="Path 50" d="M322.617,382.056h-2.857a2.26,2.26,0,0,0,0,4.52h2.858a2.26,2.26,0,0,0,0-4.52Zm0,0" transform="translate(-245.846 -295.832)"/>
  <path id="Path_51" data-name="Path 51" d="M344.733,337.539a2.26,2.26,0,0,0,.035-3.2l-2-2.043a2.26,2.26,0,0,0-3.231,3.16l2,2.043a2.26,2.26,0,0,0,3.2.035Zm0,0" transform="translate(-262.413 -256.781)"/>
</svg>
