<svg xmlns="http://www.w3.org/2000/svg" width="107.507" height="107.507" viewBox="0 0 107.507 107.507">
  <g id="work" transform="translate(-1 -1)">
    <path id="Path_19" data-name="Path 19" d="M105.039,105.039V27.01a1.733,1.733,0,0,0-1.734-1.734h-1.734v-5.2a1.733,1.733,0,0,0-1.734-1.734h-5.2V14.461c2.036-.936,3.468-3.454,3.468-6.525C98.1,4.047,95.819,1,92.9,1s-5.2,3.047-5.2,6.936c0,3.071,1.432,5.589,3.468,6.525V18.34H77.295V14.461c2.036-.936,3.468-3.454,3.468-6.525,0-3.889-2.284-6.936-5.2-6.936s-5.2,3.047-5.2,6.936c0,3.071,1.432,5.589,3.468,6.525V18.34h-5.2a1.733,1.733,0,0,0-1.734,1.734v5.2H65.157a1.733,1.733,0,0,0-1.734,1.734V70.359H46.083V53.019a1.734,1.734,0,0,0-1.734-1.734H42.615v-5.2a1.733,1.733,0,0,0-1.734-1.734H9.67a1.733,1.733,0,0,0-1.734,1.734v5.2H6.2a1.734,1.734,0,0,0-1.734,1.734v52.019H1v3.468H108.507v-3.468ZM92.9,4.468c.707,0,1.734,1.351,1.734,3.468S93.608,11.4,92.9,11.4s-1.734-1.351-1.734-3.468S92.193,4.468,92.9,4.468Zm-17.34,0c.707,0,1.734,1.351,1.734,3.468S76.268,11.4,75.561,11.4s-1.734-1.351-1.734-3.468S74.854,4.468,75.561,4.468Zm-5.2,17.34H98.1v3.468H70.359Zm31.212,6.936v76.295H94.635v-8.67A1.734,1.734,0,0,0,92.9,94.635H75.561a1.733,1.733,0,0,0-1.734,1.734v8.67H66.891V28.744Zm-10.4,76.295H77.295V98.1H91.167ZM63.423,73.827v31.212H46.083V73.827ZM11.4,47.817H39.147v3.468H11.4ZM7.936,54.753h34.68v50.285H7.936Z"/>
    <path id="Path_20" data-name="Path 20" d="M29,45h3.468v3.468H29Z" transform="translate(20.551 32.295)"/>
    <path id="Path_21" data-name="Path 21" d="M33,45h3.468v3.468H33Z" transform="translate(23.487 32.295)"/>
    <path id="Path_22" data-name="Path 22" d="M29,49h3.468v3.468H29Z" transform="translate(20.551 35.231)"/>
    <path id="Path_23" data-name="Path 23" d="M33,49h3.468v3.468H33Z" transform="translate(23.487 35.231)"/>
    <path id="Path_24" data-name="Path 24" d="M29,53h3.468v3.468H29Z" transform="translate(20.551 38.167)"/>
    <path id="Path_25" data-name="Path 25" d="M33,53h3.468v3.468H33Z" transform="translate(23.487 38.167)"/>
    <path id="Path_26" data-name="Path 26" d="M29,57h3.468v3.468H29Z" transform="translate(20.551 41.103)"/>
    <path id="Path_27" data-name="Path 27" d="M33,57h3.468v3.468H33Z" transform="translate(23.487 41.103)"/>
    <path id="Path_28" data-name="Path 28" d="M42.734,33.4H49.67A1.733,1.733,0,0,0,51.4,31.67V24.734A1.733,1.733,0,0,0,49.67,23H42.734A1.733,1.733,0,0,0,41,24.734V31.67A1.733,1.733,0,0,0,42.734,33.4Zm1.734-6.936h3.468v3.468H44.468Z" transform="translate(29.359 16.148)"/>
    <path id="Path_29" data-name="Path 29" d="M59.67,23H52.734A1.733,1.733,0,0,0,51,24.734V31.67A1.733,1.733,0,0,0,52.734,33.4H59.67A1.733,1.733,0,0,0,61.4,31.67V24.734A1.733,1.733,0,0,0,59.67,23Zm-1.734,6.936H54.468V26.468h3.468Z" transform="translate(36.699 16.148)"/>
    <path id="Path_30" data-name="Path 30" d="M42.734,41.4H49.67A1.733,1.733,0,0,0,51.4,39.67V32.734A1.733,1.733,0,0,0,49.67,31H42.734A1.733,1.733,0,0,0,41,32.734V39.67A1.733,1.733,0,0,0,42.734,41.4Zm1.734-6.936h3.468v3.468H44.468Z" transform="translate(29.359 22.019)"/>
    <path id="Path_31" data-name="Path 31" d="M59.67,31H52.734A1.733,1.733,0,0,0,51,32.734V39.67A1.733,1.733,0,0,0,52.734,41.4H59.67A1.733,1.733,0,0,0,61.4,39.67V32.734A1.733,1.733,0,0,0,59.67,31Zm-1.734,6.936H54.468V34.468h3.468Z" transform="translate(36.699 22.019)"/>
    <path id="Path_32" data-name="Path 32" d="M42.734,49.4H49.67A1.734,1.734,0,0,0,51.4,47.67V40.734A1.734,1.734,0,0,0,49.67,39H42.734A1.734,1.734,0,0,0,41,40.734V47.67A1.734,1.734,0,0,0,42.734,49.4Zm1.734-6.936h3.468v3.468H44.468Z" transform="translate(29.359 27.891)"/>
    <path id="Path_33" data-name="Path 33" d="M59.67,39H52.734A1.734,1.734,0,0,0,51,40.734V47.67A1.734,1.734,0,0,0,52.734,49.4H59.67A1.734,1.734,0,0,0,61.4,47.67V40.734A1.734,1.734,0,0,0,59.67,39Zm-1.734,6.936H54.468V42.468h3.468Z" transform="translate(36.699 27.891)"/>
    <path id="Path_34" data-name="Path 34" d="M42.734,57.4H49.67A1.733,1.733,0,0,0,51.4,55.67V48.734A1.734,1.734,0,0,0,49.67,47H42.734A1.734,1.734,0,0,0,41,48.734V55.67A1.733,1.733,0,0,0,42.734,57.4Zm1.734-6.936h3.468v3.468H44.468Z" transform="translate(29.359 33.763)"/>
    <path id="Path_35" data-name="Path 35" d="M59.67,47H52.734A1.734,1.734,0,0,0,51,48.734V55.67A1.733,1.733,0,0,0,52.734,57.4H59.67A1.733,1.733,0,0,0,61.4,55.67V48.734A1.734,1.734,0,0,0,59.67,47Zm-1.734,6.936H54.468V50.468h3.468Z" transform="translate(36.699 33.763)"/>
    <path id="Path_36" data-name="Path 36" d="M15.67,34H8.734A1.734,1.734,0,0,0,7,35.734V42.67A1.734,1.734,0,0,0,8.734,44.4H15.67A1.734,1.734,0,0,0,17.4,42.67V35.734A1.734,1.734,0,0,0,15.67,34Zm-1.734,6.936H10.468V37.468h3.468Z" transform="translate(4.404 24.221)"/>
    <path id="Path_37" data-name="Path 37" d="M25.67,34H18.734A1.734,1.734,0,0,0,17,35.734V42.67A1.734,1.734,0,0,0,18.734,44.4H25.67A1.734,1.734,0,0,0,27.4,42.67V35.734A1.734,1.734,0,0,0,25.67,34Zm-1.734,6.936H20.468V37.468h3.468Z" transform="translate(11.744 24.221)"/>
    <path id="Path_38" data-name="Path 38" d="M15.67,42H8.734A1.734,1.734,0,0,0,7,43.734V50.67A1.734,1.734,0,0,0,8.734,52.4H15.67A1.734,1.734,0,0,0,17.4,50.67V43.734A1.734,1.734,0,0,0,15.67,42Zm-1.734,6.936H10.468V45.468h3.468Z" transform="translate(4.404 30.093)"/>
    <path id="Path_39" data-name="Path 39" d="M25.67,42H18.734A1.734,1.734,0,0,0,17,43.734V50.67A1.734,1.734,0,0,0,18.734,52.4H25.67A1.734,1.734,0,0,0,27.4,50.67V43.734A1.734,1.734,0,0,0,25.67,42Zm-1.734,6.936H20.468V45.468h3.468Z" transform="translate(11.744 30.093)"/>
    <path id="Path_40" data-name="Path 40" d="M15.67,50H8.734A1.734,1.734,0,0,0,7,51.734V58.67A1.734,1.734,0,0,0,8.734,60.4H15.67A1.734,1.734,0,0,0,17.4,58.67V51.734A1.734,1.734,0,0,0,15.67,50Zm-1.734,6.936H10.468V53.468h3.468Z" transform="translate(4.404 35.965)"/>
    <path id="Path_41" data-name="Path 41" d="M25.67,50H18.734A1.734,1.734,0,0,0,17,51.734V58.67A1.734,1.734,0,0,0,18.734,60.4H25.67A1.734,1.734,0,0,0,27.4,58.67V51.734A1.734,1.734,0,0,0,25.67,50Zm-1.734,6.936H20.468V53.468h3.468Z" transform="translate(11.744 35.965)"/>
    <path id="Path_42" data-name="Path 42" d="M41,19H68.744v3.468H41Z" transform="translate(29.359 13.212)"/>
  </g>
</svg>
