<svg xmlns="http://www.w3.org/2000/svg" width="28.373" height="28.373" viewBox="0 0 28.373 28.373">
  <path id="facebook" d="M4.156,28.373h9.254V18.287H10.086V14.962h3.325V10.806A4.161,4.161,0,0,1,17.567,6.65h4.156V9.975H18.4a1.664,1.664,0,0,0-1.662,1.662v3.325h4.837l-.554,3.325H16.736V28.373h7.481a4.161,4.161,0,0,0,4.156-4.156V4.156A4.161,4.161,0,0,0,24.217,0H4.156A4.161,4.161,0,0,0,0,4.156v20.06A4.161,4.161,0,0,0,4.156,28.373ZM1.662,4.156A2.5,2.5,0,0,1,4.156,1.662h20.06A2.5,2.5,0,0,1,26.71,4.156v20.06a2.5,2.5,0,0,1-2.494,2.494H18.4V19.95h4.029l1.108-6.65H18.4V11.637h4.987V4.987H17.567a5.825,5.825,0,0,0-5.819,5.819V13.3H8.423v6.65h3.325V26.71H4.156a2.5,2.5,0,0,1-2.494-2.494Zm0,0" fill="#acacac"/>
</svg>
