<svg id="instagram" xmlns="http://www.w3.org/2000/svg" width="28.373" height="28.373" viewBox="0 0 28.373 28.373">
  <g id="Group_176" data-name="Group 176">
    <path id="Path_89" data-name="Path 89" d="M4.156,28.373h20.06a4.161,4.161,0,0,0,4.156-4.156V4.156A4.161,4.161,0,0,0,24.217,0H4.156A4.161,4.161,0,0,0,0,4.156v20.06A4.161,4.161,0,0,0,4.156,28.373ZM1.662,4.156A2.5,2.5,0,0,1,4.156,1.662h20.06A2.5,2.5,0,0,1,26.71,4.156v20.06a2.5,2.5,0,0,1-2.494,2.494H4.156a2.5,2.5,0,0,1-2.494-2.494Zm0,0" fill="#acacac"/>
    <path id="Path_90" data-name="Path 90" d="M128.481,135.962A7.481,7.481,0,1,0,121,128.481,7.49,7.49,0,0,0,128.481,135.962Zm0-13.3a5.819,5.819,0,1,1-5.819,5.819A5.825,5.825,0,0,1,128.481,122.662Zm0,0" transform="translate(-114.295 -114.295)" fill="#acacac"/>
    <path id="Path_91" data-name="Path 91" d="M363.494,65.987A2.494,2.494,0,1,0,361,63.494,2.5,2.5,0,0,0,363.494,65.987Zm0-3.325a.831.831,0,1,1-.831.831A.832.832,0,0,1,363.494,62.662Zm0,0" transform="translate(-340.995 -57.62)" fill="#acacac"/>
  </g>
</svg>
