<svg id="linkedin" xmlns="http://www.w3.org/2000/svg" width="28.179" height="28.179" viewBox="0 0 28.179 28.179">
  <g id="Group_175" data-name="Group 175">
    <path id="Path_92" data-name="Path 92" d="M24.051,0H4.128A4.132,4.132,0,0,0,0,4.128V24.051a4.132,4.132,0,0,0,4.128,4.128H24.051a4.132,4.132,0,0,0,4.128-4.128V4.128A4.132,4.132,0,0,0,24.051,0Zm2.477,24.051a2.48,2.48,0,0,1-2.477,2.477H4.128a2.48,2.48,0,0,1-2.477-2.477V4.128A2.48,2.48,0,0,1,4.128,1.651H24.051a2.48,2.48,0,0,1,2.477,2.477Zm0,0" fill="#acacac"/>
    <path id="Path_93" data-name="Path 93" d="M91,221.668h4.953V210H91Zm1.651-10.017H94.3v8.366H92.651Zm0,0" transform="translate(-85.992 -198.442)" fill="#acacac"/>
    <path id="Path_94" data-name="Path 94" d="M217.609,210h0a4.944,4.944,0,0,0-1.651.281V210H211v11.668h4.953v-5.889a.826.826,0,0,1,1.651,0v5.889h4.953v-6.457A5.189,5.189,0,0,0,217.609,210Zm3.3,10.017h-1.651v-4.238a2.477,2.477,0,0,0-4.953,0v4.238h-1.651v-8.366H214.3V213.3l1.321-.992a3.273,3.273,0,0,1,1.981-.66h0a3.53,3.53,0,0,1,3.3,3.56Zm0,0" transform="translate(-199.387 -198.442)" fill="#acacac"/>
    <path id="Path_95" data-name="Path 95" d="M91,94.953h4.953V90H91Zm1.651-3.3H94.3V93.3H92.651Zm0,0" transform="translate(-85.992 -85.047)" fill="#acacac"/>
  </g>
</svg>
