<svg xmlns="http://www.w3.org/2000/svg" width="32.776" height="26.825" viewBox="0 0 32.776 26.825">
  <path id="twitter" d="M32.776,3.583c-2.062.1-2.017.087-2.25.107L31.747.2s-3.811,1.4-4.778,1.653a7.647,7.647,0,0,0-9.006-.724,6.238,6.238,0,0,0-3,6.414A16.637,16.637,0,0,1,4.187,1.477L3.283.391,2.607,1.632a7.5,7.5,0,0,0-.8,5.048,7.252,7.252,0,0,0,.7,1.97l-.776-.3-.092,1.3a6.915,6.915,0,0,0,1.173,4.111,7.31,7.31,0,0,0,.913,1.127l-.4-.062.489,1.485a7.219,7.219,0,0,0,3.711,4.3C5.8,21.341,4.4,21.809,2.1,22.565L0,23.256l1.942,1.062a20.383,20.383,0,0,0,5.942,2.163c5.746.9,12.216.167,16.572-3.755,3.669-3.3,4.872-8,4.622-12.895a3.056,3.056,0,0,1,.571-1.989C30.462,6.755,32.771,3.59,32.776,3.583ZM28.113,6.691a4.976,4.976,0,0,0-.952,3.238c.252,4.933-1.09,8.759-3.99,11.371-3.388,3.051-8.852,4.248-14.99,3.286a14.866,14.866,0,0,1-3.212-.954,50.928,50.928,0,0,0,5.817-2.391l3.354-1.588-3.7-.237a5.237,5.237,0,0,1-4.159-2.369,6.642,6.642,0,0,0,1.41-.235l3.532-.984-3.562-.872A5.3,5.3,0,0,1,4.419,12.7a5.433,5.433,0,0,1-.7-1.549,8.891,8.891,0,0,0,1.445.231l3.3.326L5.846,9.671A5.5,5.5,0,0,1,3.763,3.878a19.106,19.106,0,0,0,13.464,5.8,11.371,11.371,0,0,0-.2-1.629,4.409,4.409,0,0,1,1.938-5.278,5.736,5.736,0,0,1,6.767.56,1.718,1.718,0,0,0,1.577.422,13.272,13.272,0,0,0,1.3-.4l-.828,2.365H28.84Zm0,0" transform="translate(0 0)" fill="#acacac"/>
</svg>
