<svg id="youtube" xmlns="http://www.w3.org/2000/svg" width="36.994" height="28.179" viewBox="0 0 36.994 28.179">
  <g id="Group_177" data-name="Group 177">
    <path id="Path_96" data-name="Path 96" d="M5.419,28.179H31.575a5.425,5.425,0,0,0,5.419-5.419V5.419A5.425,5.425,0,0,0,31.575,0H5.419A5.425,5.425,0,0,0,0,5.419V22.76A5.425,5.425,0,0,0,5.419,28.179ZM2.168,5.419A3.255,3.255,0,0,1,5.419,2.168H31.575a3.255,3.255,0,0,1,3.251,3.251V22.76a3.255,3.255,0,0,1-3.251,3.251H5.419A3.255,3.255,0,0,1,2.168,22.76Zm0,0" fill="#acacac"/>
    <path id="Path_97" data-name="Path 97" d="M181,94.508V109.24l13.042-7.487Zm2.168,3.684,6.467,3.593-6.467,3.712Zm0,0" transform="translate(-167.922 -87.679)" fill="#acacac"/>
  </g>
</svg>
